<mxfile host="app.diagrams.net" modified="2023-10-18T13:27:37.868Z" agent="Mozilla/5.0 (Windows NT 10.0; Win64; x64) AppleWebKit/537.36 (KHTML, like Gecko) Chrome/117.0.0.0 Safari/537.36" etag="SjXxJtaf3QPeeamjnSY3" version="22.0.4" type="github">
  <diagram name="Page-1" id="2-IEAkJzQPpvfylClCuh">
    <mxGraphModel dx="1434" dy="782" grid="1" gridSize="10" guides="1" tooltips="1" connect="1" arrows="1" fold="1" page="1" pageScale="1" pageWidth="827" pageHeight="1169" math="0" shadow="0">
      <root>
        <mxCell id="0" />
        <mxCell id="1" parent="0" />
        <mxCell id="q88kPyFM35Pnh4lTylPm-1" value="&lt;font style=&quot;font-size: 31px;&quot;&gt;MySQL&lt;/font&gt;" style="shape=cylinder3;whiteSpace=wrap;html=1;boundedLbl=1;backgroundOutline=1;size=15;" vertex="1" parent="1">
          <mxGeometry x="339" y="50" width="150" height="160" as="geometry" />
        </mxCell>
        <mxCell id="q88kPyFM35Pnh4lTylPm-15" value="Users" style="swimlane;" vertex="1" parent="1">
          <mxGeometry x="50" y="310" width="245" height="200" as="geometry" />
        </mxCell>
        <mxCell id="q88kPyFM35Pnh4lTylPm-16" value="PK id int NOT NULL&lt;br&gt;&lt;div style=&quot;&quot;&gt;Pseudo string(250) NOT NULL&lt;/div&gt;&lt;div style=&quot;&quot;&gt;password_hash string(250) NOT NULL&lt;/div&gt;&lt;div style=&quot;&quot;&gt;Victoires int(250)&lt;/div&gt;&lt;div style=&quot;&quot;&gt;Poles int(250)&lt;/div&gt;&lt;div style=&quot;&quot;&gt;MeilleurTemps int(250)&lt;/div&gt;" style="text;html=1;align=left;verticalAlign=middle;resizable=0;points=[];autosize=1;strokeColor=none;fillColor=none;" vertex="1" parent="q88kPyFM35Pnh4lTylPm-15">
          <mxGeometry y="30" width="230" height="100" as="geometry" />
        </mxCell>
        <mxCell id="q88kPyFM35Pnh4lTylPm-18" value="Course" style="swimlane;" vertex="1" parent="1">
          <mxGeometry x="520" y="310" width="245" height="200" as="geometry" />
        </mxCell>
        <mxCell id="q88kPyFM35Pnh4lTylPm-19" value="PK id int NOT NULL&lt;br&gt;&lt;div style=&quot;&quot;&gt;Organisateur char(250) NOT NULL&lt;/div&gt;&lt;div style=&quot;&quot;&gt;&lt;span style=&quot;background-color: initial;&quot;&gt;Circuit string(250) NOT NULL&lt;/span&gt;&lt;br&gt;&lt;/div&gt;&lt;div style=&quot;&quot;&gt;Date datetime NOT NULL&lt;/div&gt;&lt;div style=&quot;&quot;&gt;Participants string(250)&lt;/div&gt;&lt;div style=&quot;&quot;&gt;Vainqueur string(250)&lt;/div&gt;&lt;div style=&quot;&quot;&gt;Pole string(250)&lt;/div&gt;&lt;div style=&quot;&quot;&gt;MeilleurTemps string(250)&lt;/div&gt;&lt;div style=&quot;&quot;&gt;Classement string(250)&lt;/div&gt;" style="text;html=1;align=left;verticalAlign=middle;resizable=0;points=[];autosize=1;strokeColor=none;fillColor=none;" vertex="1" parent="q88kPyFM35Pnh4lTylPm-18">
          <mxGeometry y="30" width="210" height="140" as="geometry" />
        </mxCell>
        <mxCell id="q88kPyFM35Pnh4lTylPm-22" style="edgeStyle=orthogonalEdgeStyle;rounded=0;orthogonalLoop=1;jettySize=auto;html=1;exitX=1;exitY=0.25;exitDx=0;exitDy=0;entryX=-0.005;entryY=0.3;entryDx=0;entryDy=0;entryPerimeter=0;" edge="1" parent="1" source="q88kPyFM35Pnh4lTylPm-15" target="q88kPyFM35Pnh4lTylPm-19">
          <mxGeometry relative="1" as="geometry" />
        </mxCell>
      </root>
    </mxGraphModel>
  </diagram>
</mxfile>
